<svg width="1653" height="993" xmlns="http://www.w3.org/2000/svg" xmlns:xlink="http://www.w3.org/1999/xlink" overflow="hidden"><defs><clipPath id="clip0"><rect x="949" y="279" width="1653" height="993"/></clipPath><clipPath id="clip1"><rect x="950" y="280" width="1650" height="990"/></clipPath><clipPath id="clip2"><rect x="950" y="280" width="1650" height="990"/></clipPath><clipPath id="clip3"><rect x="1123" y="450" width="1430" height="506"/></clipPath><clipPath id="clip4"><rect x="950" y="280" width="1650" height="990"/></clipPath><clipPath id="clip5"><rect x="950" y="280" width="1650" height="990"/></clipPath><clipPath id="clip6"><rect x="950" y="280" width="1650" height="990"/></clipPath><clipPath id="clip7"><rect x="950" y="280" width="1650" height="990"/></clipPath><clipPath id="clip8"><rect x="950" y="280" width="1650" height="990"/></clipPath><clipPath id="clip9"><rect x="950" y="280" width="1650" height="990"/></clipPath><clipPath id="clip10"><rect x="950" y="280" width="1650" height="990"/></clipPath><clipPath id="clip11"><rect x="950" y="280" width="1650" height="990"/></clipPath><clipPath id="clip12"><rect x="950" y="280" width="1650" height="990"/></clipPath><clipPath id="clip13"><rect x="950" y="280" width="1650" height="990"/></clipPath><clipPath id="clip14"><rect x="950" y="280" width="1650" height="990"/></clipPath><clipPath id="clip15"><rect x="950" y="280" width="1650" height="990"/></clipPath><clipPath id="clip16"><rect x="950" y="280" width="1650" height="990"/></clipPath><clipPath id="clip17"><rect x="950" y="280" width="1650" height="990"/></clipPath><clipPath id="clip18"><rect x="950" y="280" width="1650" height="990"/></clipPath><clipPath id="clip19"><rect x="950" y="280" width="1650" height="990"/></clipPath><clipPath id="clip20"><rect x="950" y="280" width="1650" height="990"/></clipPath><clipPath id="clip21"><rect x="950" y="280" width="1650" height="990"/></clipPath><clipPath id="clip22"><rect x="950" y="280" width="1650" height="990"/></clipPath><clipPath id="clip23"><rect x="950" y="280" width="1650" height="990"/></clipPath></defs><g clip-path="url(#clip0)" transform="translate(-949 -279)"><rect x="950" y="280" width="1650" height="990" fill="#FFFFFF"/><g clip-path="url(#clip1)"><path d="M1123.5 881.529 2550.5 881.529M1123.5 809.527 2550.5 809.527M1123.5 737.524 2550.5 737.524M1123.5 665.522 2550.5 665.522M1123.5 593.52 2550.5 593.52M1123.5 521.517 2550.5 521.517M1123.5 450.5 2550.5 450.5" stroke="#D9D9D9" stroke-width="3.4375" stroke-linejoin="round" stroke-miterlimit="10" fill="none"/></g><g clip-path="url(#clip2)"><path d="M1123.5 953.5 2550.5 953.5" stroke="#D9D9D9" stroke-width="3.4375" stroke-linejoin="round" stroke-miterlimit="10" fill="none" fill-rule="evenodd"/></g><g clip-path="url(#clip3)"><path d="M1195 493 1338.04 508.017 1480.05 623.02 1623.05 752.025 1766.06 766.025 1908.06 766.025 2051.07 766.025 2193.07 781 2336.08 781 2479 781" stroke="#5B9BD5" stroke-width="10.3125" stroke-linecap="round" stroke-linejoin="round" stroke-miterlimit="10" fill="none"/></g><g clip-path="url(#clip4)"><path d="M1206.97 493.656C1206.97 499.731 1202.04 504.655 1195.97 504.655 1189.89 504.655 1184.97 499.731 1184.97 493.656 1184.97 487.581 1189.89 482.656 1195.97 482.656 1202.04 482.656 1206.97 487.581 1206.97 493.656Z" stroke="#5B9BD5" stroke-width="3.4375" stroke-linejoin="round" stroke-miterlimit="10" fill="#5B9BD5"/><path d="M1348.97 507.655C1348.97 513.73 1344.04 518.655 1337.97 518.655 1331.89 518.655 1326.97 513.73 1326.97 507.655 1326.97 501.58 1331.89 496.656 1337.97 496.656 1344.04 496.656 1348.97 501.58 1348.97 507.655Z" stroke="#5B9BD5" stroke-width="3.4375" stroke-linejoin="round" stroke-miterlimit="10" fill="#5B9BD5"/><path d="M1491.97 622.656C1491.97 628.731 1487.04 633.655 1480.97 633.655 1474.89 633.655 1469.97 628.731 1469.97 622.656 1469.97 616.581 1474.89 611.656 1480.97 611.656 1487.04 611.656 1491.97 616.581 1491.97 622.656Z" stroke="#5B9BD5" stroke-width="3.4375" stroke-linejoin="round" stroke-miterlimit="10" fill="#5B9BD5"/><path d="M1634.97 751.655C1634.97 757.73 1630.04 762.655 1623.97 762.655 1617.89 762.655 1612.97 757.73 1612.97 751.655 1612.97 745.581 1617.89 740.656 1623.97 740.656 1630.04 740.656 1634.97 745.581 1634.97 751.655Z" stroke="#5B9BD5" stroke-width="3.4375" stroke-linejoin="round" stroke-miterlimit="10" fill="#5B9BD5"/><path d="M1776.97 766.656C1776.97 772.731 1772.04 777.655 1765.97 777.655 1759.89 777.655 1754.97 772.731 1754.97 766.656 1754.97 760.581 1759.89 755.656 1765.97 755.656 1772.04 755.656 1776.97 760.581 1776.97 766.656Z" stroke="#5B9BD5" stroke-width="3.4375" stroke-linejoin="round" stroke-miterlimit="10" fill="#5B9BD5"/><path d="M1919.97 766.656C1919.97 772.731 1915.04 777.655 1908.97 777.655 1902.89 777.655 1897.97 772.731 1897.97 766.656 1897.97 760.581 1902.89 755.656 1908.97 755.656 1915.04 755.656 1919.97 760.581 1919.97 766.656Z" stroke="#5B9BD5" stroke-width="3.4375" stroke-linejoin="round" stroke-miterlimit="10" fill="#5B9BD5"/><path d="M2061.97 766.656C2061.97 772.731 2057.04 777.655 2050.97 777.655 2044.89 777.655 2039.97 772.731 2039.97 766.656 2039.97 760.581 2044.89 755.656 2050.97 755.656 2057.04 755.656 2061.97 760.581 2061.97 766.656Z" stroke="#5B9BD5" stroke-width="3.4375" stroke-linejoin="round" stroke-miterlimit="10" fill="#5B9BD5"/><path d="M2204.97 780.656C2204.97 786.731 2200.04 791.655 2193.97 791.655 2187.89 791.655 2182.97 786.731 2182.97 780.656 2182.97 774.581 2187.89 769.656 2193.97 769.656 2200.04 769.656 2204.97 774.581 2204.97 780.656Z" stroke="#5B9BD5" stroke-width="3.4375" stroke-linejoin="round" stroke-miterlimit="10" fill="#5B9BD5"/><path d="M2347.97 780.656C2347.97 786.731 2343.04 791.655 2336.97 791.655 2330.89 791.655 2325.97 786.731 2325.97 780.656 2325.97 774.581 2330.89 769.656 2336.97 769.656 2343.04 769.656 2347.97 774.581 2347.97 780.656Z" stroke="#5B9BD5" stroke-width="3.4375" stroke-linejoin="round" stroke-miterlimit="10" fill="#5B9BD5"/><path d="M2489.97 780.656C2489.97 786.731 2485.04 791.655 2478.97 791.655 2472.89 791.655 2467.97 786.731 2467.97 780.656 2467.97 774.581 2472.89 769.656 2478.97 769.656 2485.04 769.656 2489.97 774.581 2489.97 780.656Z" stroke="#5B9BD5" stroke-width="3.4375" stroke-linejoin="round" stroke-miterlimit="10" fill="#5B9BD5"/></g><g clip-path="url(#clip5)"><text fill="#595959" font-family="Calibri,Calibri_MSFontService,sans-serif" font-weight="400" font-size="41" transform="matrix(1 0 0 1 1064.72 965)">0</text></g><g clip-path="url(#clip6)"><text fill="#595959" font-family="Calibri,Calibri_MSFontService,sans-serif" font-weight="400" font-size="41" transform="matrix(1 0 0 1 1064.72 893)">5</text></g><g clip-path="url(#clip7)"><text fill="#595959" font-family="Calibri,Calibri_MSFontService,sans-serif" font-weight="400" font-size="41" transform="matrix(1 0 0 1 1043.82 821)">10</text></g><g clip-path="url(#clip8)"><text fill="#595959" font-family="Calibri,Calibri_MSFontService,sans-serif" font-weight="400" font-size="41" transform="matrix(1 0 0 1 1043.82 749)">15</text></g><g clip-path="url(#clip9)"><text fill="#595959" font-family="Calibri,Calibri_MSFontService,sans-serif" font-weight="400" font-size="41" transform="matrix(1 0 0 1 1043.82 677)">20</text></g><g clip-path="url(#clip10)"><text fill="#595959" font-family="Calibri,Calibri_MSFontService,sans-serif" font-weight="400" font-size="41" transform="matrix(1 0 0 1 1043.82 605)">25</text></g><g clip-path="url(#clip11)"><text fill="#595959" font-family="Calibri,Calibri_MSFontService,sans-serif" font-weight="400" font-size="41" transform="matrix(1 0 0 1 1043.82 534)">30</text></g><g clip-path="url(#clip12)"><text fill="#595959" font-family="Calibri,Calibri_MSFontService,sans-serif" font-weight="400" font-size="41" transform="matrix(1 0 0 1 1043.82 462)">35</text></g><g clip-path="url(#clip13)"><text fill="#595959" font-family="Calibri,Calibri_MSFontService,sans-serif" font-weight="400" font-size="41" transform="matrix(0.707107 -0.707107 0.707107 0.707107 1001.76 1210)">DE MADRUGADA</text></g><g clip-path="url(#clip14)"><text fill="#595959" font-family="Calibri,Calibri_MSFontService,sans-serif" font-weight="400" font-size="41" transform="matrix(0.707107 -0.707107 0.707107 0.707107 1122.1 1232)">EM HORA INCERTA</text></g><g clip-path="url(#clip15)"><text fill="#595959" font-family="Calibri,Calibri_MSFontService,sans-serif" font-weight="400" font-size="41" transform="matrix(0.707107 -0.707107 0.707107 0.707107 1329.44 1168)">PELA MANHÃ</text></g><g clip-path="url(#clip16)"><text fill="#595959" font-family="Calibri,Calibri_MSFontService,sans-serif" font-weight="400" font-size="41" transform="matrix(0.707107 -0.707107 0.707107 0.707107 1481.92 1158)">11:00:00 PM</text></g><g clip-path="url(#clip17)"><text fill="#595959" font-family="Calibri,Calibri_MSFontService,sans-serif" font-weight="400" font-size="41" transform="matrix(0.707107 -0.707107 0.707107 0.707107 1622.72 1160)">12:00:00 AM</text></g><g clip-path="url(#clip18)"><text fill="#595959" font-family="Calibri,Calibri_MSFontService,sans-serif" font-weight="400" font-size="41" transform="matrix(0.707107 -0.707107 0.707107 0.707107 1781.93 1143)">7:00:00 PM</text></g><g clip-path="url(#clip19)"><text fill="#595959" font-family="Calibri,Calibri_MSFontService,sans-serif" font-weight="400" font-size="41" transform="matrix(0.707107 -0.707107 0.707107 0.707107 1958.08 1109)">A TARDE</text></g><g clip-path="url(#clip20)"><text fill="#595959" font-family="Calibri,Calibri_MSFontService,sans-serif" font-weight="400" font-size="41" transform="matrix(0.707107 -0.707107 0.707107 0.707107 2065.35 1145)">7:00:00 AM</text></g><g clip-path="url(#clip21)"><text fill="#595959" font-family="Calibri,Calibri_MSFontService,sans-serif" font-weight="400" font-size="41" transform="matrix(0.707107 -0.707107 0.707107 0.707107 2209.79 1143)">2:00:00 PM</text></g><g clip-path="url(#clip22)"><text fill="#595959" font-family="Calibri,Calibri_MSFontService,sans-serif" font-weight="400" font-size="41" transform="matrix(0.707107 -0.707107 0.707107 0.707107 2352.4 1143)">4:00:00 PM</text></g><g clip-path="url(#clip23)"><text fill="#595959" font-family="Calibri,Calibri_MSFontService,sans-serif" font-weight="400" font-size="64" transform="matrix(1 0 0 1 1389.15 376)">Número de Casos por Horário</text></g><rect x="950.5" y="280.5" width="1650" height="990" stroke="#D9D9D9" stroke-width="3.4375" stroke-linejoin="round" stroke-miterlimit="10" fill="none"/></g></svg>