<svg width="1653" height="993" xmlns="http://www.w3.org/2000/svg" xmlns:xlink="http://www.w3.org/1999/xlink" overflow="hidden"><defs><clipPath id="clip0"><rect x="2012" y="142" width="1653" height="993"/></clipPath><clipPath id="clip1"><rect x="2012" y="142" width="1650" height="990"/></clipPath><clipPath id="clip2"><rect x="2122" y="312" width="1493" height="612"/></clipPath><clipPath id="clip3"><rect x="2122" y="312" width="1493" height="612"/></clipPath><clipPath id="clip4"><rect x="2012" y="142" width="1650" height="990"/></clipPath><clipPath id="clip5"><rect x="2012" y="142" width="1650" height="990"/></clipPath><clipPath id="clip6"><rect x="2012" y="142" width="1650" height="990"/></clipPath><clipPath id="clip7"><rect x="2012" y="142" width="1650" height="990"/></clipPath><clipPath id="clip8"><rect x="2012" y="142" width="1650" height="990"/></clipPath><clipPath id="clip9"><rect x="2012" y="142" width="1650" height="990"/></clipPath><clipPath id="clip10"><rect x="2012" y="142" width="1650" height="990"/></clipPath><clipPath id="clip11"><rect x="2012" y="142" width="1650" height="990"/></clipPath><clipPath id="clip12"><rect x="2012" y="142" width="1650" height="990"/></clipPath><clipPath id="clip13"><rect x="2012" y="142" width="1650" height="990"/></clipPath><clipPath id="clip14"><rect x="2012" y="142" width="1650" height="990"/></clipPath><clipPath id="clip15"><rect x="2012" y="142" width="1650" height="990"/></clipPath><clipPath id="clip16"><rect x="2012" y="142" width="1650" height="990"/></clipPath><clipPath id="clip17"><rect x="2012" y="142" width="1650" height="990"/></clipPath><clipPath id="clip18"><rect x="2012" y="142" width="1650" height="990"/></clipPath><clipPath id="clip19"><rect x="2012" y="142" width="1650" height="990"/></clipPath><clipPath id="clip20"><rect x="2012" y="142" width="1650" height="990"/></clipPath><clipPath id="clip21"><rect x="2012" y="142" width="1650" height="990"/></clipPath><clipPath id="clip22"><rect x="2012" y="142" width="1650" height="990"/></clipPath><clipPath id="clip23"><rect x="2012" y="142" width="1650" height="990"/></clipPath><clipPath id="clip24"><rect x="2012" y="142" width="1650" height="990"/></clipPath><clipPath id="clip25"><rect x="2012" y="142" width="1650" height="990"/></clipPath><clipPath id="clip26"><rect x="2012" y="142" width="1650" height="990"/></clipPath><clipPath id="clip27"><rect x="2012" y="142" width="1650" height="990"/></clipPath><clipPath id="clip28"><rect x="2012" y="142" width="1650" height="990"/></clipPath><clipPath id="clip29"><rect x="2012" y="142" width="1650" height="990"/></clipPath></defs><g clip-path="url(#clip0)" transform="translate(-2012 -142)"><rect x="2013" y="143" width="1650" height="990" fill="#FFFFFF"/><g clip-path="url(#clip1)"><path d="M2122.5 853.528 3612.5 853.528M2122.5 786.526 3612.5 786.526M2122.5 718.524 3612.5 718.524M2122.5 650.521 3612.5 650.521M2122.5 583.519 3612.5 583.519M2122.5 515.517 3612.5 515.517M2122.5 447.515 3612.5 447.515M2122.5 380.513 3612.5 380.513M2122.5 312.5 3612.5 312.5" stroke="#D9D9D9" stroke-width="3.4375" stroke-linejoin="round" stroke-miterlimit="10" fill="none"/></g><g clip-path="url(#clip2)"><path d="M2159.07 502.016 2192.07 502.016 2192.07 921 2159.07 921ZM2308.08 461.015 2341.08 461.015 2341.08 921 2308.08 921ZM2457.08 448.015 2490.08 448.015 2490.08 921 2457.08 921ZM2606.09 556.018 2639.09 556.018 2639.09 921 2606.09 921ZM2755.09 529.017 2788.09 529.017 2788.09 921 2755.09 921ZM2904.1 543.018 2937.1 543.018 2937.1 921 2904.1 921ZM3053.1 475.016 3086.1 475.016 3086.1 921 3053.1 921ZM3202.1 597.02 3235.11 597.02 3235.11 921 3202.1 921ZM3351.11 516.017 3384.11 516.017 3384.11 921 3351.11 921ZM3500.11 624.02 3533.12 624.02 3533.12 921 3500.11 921Z" fill="#3B64AD"/></g><g clip-path="url(#clip3)"><path d="M2201.07 380.012 2235.07 380.012 2235.07 921 2201.07 921ZM2350.08 394.013 2384.08 394.013 2384.08 921 2350.08 921ZM2499.08 421.014 2533.08 421.014 2533.08 921 2499.08 921ZM2648.09 421.014 2682.09 421.014 2682.09 921 2648.09 921ZM2797.09 434.014 2831.09 434.014 2831.09 921 2797.09 921ZM2946.1 434.014 2980.1 434.014 2980.1 921 2946.1 921ZM3095.1 461.015 3129.1 461.015 3129.1 921 3095.1 921ZM3244.11 461.015 3278.11 461.015 3278.11 921 3244.11 921ZM3393.11 475.016 3427.11 475.016 3427.11 921 3393.11 921ZM3542.12 475.016 3576.12 475.016 3576.12 921 3542.12 921Z" fill="#8FA2D4"/></g><g clip-path="url(#clip4)"><path d="M2122.5 921.5 3612.5 921.5" stroke="#D9D9D9" stroke-width="3.4375" stroke-linejoin="round" stroke-miterlimit="10" fill="none" fill-rule="evenodd"/></g><g clip-path="url(#clip5)"><text fill="#595959" font-family="Calibri,Calibri_MSFontService,sans-serif" font-weight="400" font-size="41" transform="matrix(1 0 0 1 2063.35 933)">0</text></g><g clip-path="url(#clip6)"><text fill="#595959" font-family="Calibri,Calibri_MSFontService,sans-serif" font-weight="400" font-size="41" transform="matrix(1 0 0 1 2063.35 865)">5</text></g><g clip-path="url(#clip7)"><text fill="#595959" font-family="Calibri,Calibri_MSFontService,sans-serif" font-weight="400" font-size="41" transform="matrix(1 0 0 1 2042.45 798)">10</text></g><g clip-path="url(#clip8)"><text fill="#595959" font-family="Calibri,Calibri_MSFontService,sans-serif" font-weight="400" font-size="41" transform="matrix(1 0 0 1 2042.45 730)">15</text></g><g clip-path="url(#clip9)"><text fill="#595959" font-family="Calibri,Calibri_MSFontService,sans-serif" font-weight="400" font-size="41" transform="matrix(1 0 0 1 2042.45 662)">20</text></g><g clip-path="url(#clip10)"><text fill="#595959" font-family="Calibri,Calibri_MSFontService,sans-serif" font-weight="400" font-size="41" transform="matrix(1 0 0 1 2042.45 595)">25</text></g><g clip-path="url(#clip11)"><text fill="#595959" font-family="Calibri,Calibri_MSFontService,sans-serif" font-weight="400" font-size="41" transform="matrix(1 0 0 1 2042.45 527)">30</text></g><g clip-path="url(#clip12)"><text fill="#595959" font-family="Calibri,Calibri_MSFontService,sans-serif" font-weight="400" font-size="41" transform="matrix(1 0 0 1 2042.45 459)">35</text></g><g clip-path="url(#clip13)"><text fill="#595959" font-family="Calibri,Calibri_MSFontService,sans-serif" font-weight="400" font-size="41" transform="matrix(1 0 0 1 2042.45 392)">40</text></g><g clip-path="url(#clip14)"><text fill="#595959" font-family="Calibri,Calibri_MSFontService,sans-serif" font-weight="400" font-size="41" transform="matrix(1 0 0 1 2042.45 324)">45</text></g><g clip-path="url(#clip15)"><text fill="#595959" font-family="Calibri,Calibri_MSFontService,sans-serif" font-weight="400" font-size="41" transform="matrix(1 0 0 1 2186.55 987)">1</text></g><g clip-path="url(#clip16)"><text fill="#595959" font-family="Calibri,Calibri_MSFontService,sans-serif" font-weight="400" font-size="41" transform="matrix(1 0 0 1 2335.52 987)">2</text></g><g clip-path="url(#clip17)"><text fill="#595959" font-family="Calibri,Calibri_MSFontService,sans-serif" font-weight="400" font-size="41" transform="matrix(1 0 0 1 2484.5 987)">3</text></g><g clip-path="url(#clip18)"><text fill="#595959" font-family="Calibri,Calibri_MSFontService,sans-serif" font-weight="400" font-size="41" transform="matrix(1 0 0 1 2633.47 987)">4</text></g><g clip-path="url(#clip19)"><text fill="#595959" font-family="Calibri,Calibri_MSFontService,sans-serif" font-weight="400" font-size="41" transform="matrix(1 0 0 1 2782.44 987)">5</text></g><g clip-path="url(#clip20)"><text fill="#595959" font-family="Calibri,Calibri_MSFontService,sans-serif" font-weight="400" font-size="41" transform="matrix(1 0 0 1 2931.41 987)">6</text></g><g clip-path="url(#clip21)"><text fill="#595959" font-family="Calibri,Calibri_MSFontService,sans-serif" font-weight="400" font-size="41" transform="matrix(1 0 0 1 3080.39 987)">7</text></g><g clip-path="url(#clip22)"><text fill="#595959" font-family="Calibri,Calibri_MSFontService,sans-serif" font-weight="400" font-size="41" transform="matrix(1 0 0 1 3229.36 987)">8</text></g><g clip-path="url(#clip23)"><text fill="#595959" font-family="Calibri,Calibri_MSFontService,sans-serif" font-weight="400" font-size="41" transform="matrix(1 0 0 1 3378.33 987)">9</text></g><g clip-path="url(#clip24)"><text fill="#595959" font-family="Calibri,Calibri_MSFontService,sans-serif" font-weight="400" font-size="41" transform="matrix(1 0 0 1 3516.85 987)">10</text></g><g clip-path="url(#clip25)"><text fill="#595959" font-family="Calibri,Calibri_MSFontService,sans-serif" font-weight="400" font-size="64" transform="matrix(1 0 0 1 2331.37 238)">Idade das vítimas por número de casos</text></g><g clip-path="url(#clip26)"><rect x="2596" y="1055" width="22" height="23" fill="#3B64AD"/></g><g clip-path="url(#clip27)"><text fill="#595959" font-family="Calibri,Calibri_MSFontService,sans-serif" font-weight="400" font-size="41" transform="matrix(1 0 0 1 2627.8 1078)">Idade das Vítimas</text></g><g clip-path="url(#clip28)"><rect x="2968" y="1055" width="23" height="23" fill="#8FA2D4"/></g><g clip-path="url(#clip29)"><text fill="#595959" font-family="Calibri,Calibri_MSFontService,sans-serif" font-weight="400" font-size="41" transform="matrix(1 0 0 1 3000.49 1078)">Casos</text></g><rect x="2013.5" y="143.5" width="1650" height="990" stroke="#D9D9D9" stroke-width="3.4375" stroke-linejoin="round" stroke-miterlimit="10" fill="none"/></g></svg>