<svg width="1653" height="993" xmlns="http://www.w3.org/2000/svg" xmlns:xlink="http://www.w3.org/1999/xlink" overflow="hidden"><defs><clipPath id="clip0"><rect x="1145" y="114" width="1653" height="993"/></clipPath><clipPath id="clip1"><rect x="1146" y="115" width="1650" height="990"/></clipPath><clipPath id="clip2"><rect x="1146" y="115" width="1650" height="990"/></clipPath><clipPath id="clip3"><rect x="1146" y="115" width="1650" height="990"/></clipPath><clipPath id="clip4"><rect x="1146" y="115" width="1650" height="990"/></clipPath><clipPath id="clip5"><rect x="1146" y="115" width="1650" height="990"/></clipPath><clipPath id="clip6"><rect x="1146" y="115" width="1650" height="990"/></clipPath><clipPath id="clip7"><rect x="1146" y="115" width="1650" height="990"/></clipPath><clipPath id="clip8"><rect x="1146" y="115" width="1650" height="990"/></clipPath><clipPath id="clip9"><rect x="1146" y="115" width="1650" height="990"/></clipPath><clipPath id="clip10"><rect x="1146" y="115" width="1650" height="990"/></clipPath><clipPath id="clip11"><rect x="1146" y="115" width="1650" height="990"/></clipPath><clipPath id="clip12"><rect x="1146" y="115" width="1650" height="990"/></clipPath><clipPath id="clip13"><rect x="1146" y="115" width="1650" height="990"/></clipPath><clipPath id="clip14"><rect x="1146" y="115" width="1650" height="990"/></clipPath><clipPath id="clip15"><rect x="1146" y="115" width="1650" height="990"/></clipPath><clipPath id="clip16"><rect x="1146" y="115" width="1650" height="990"/></clipPath><clipPath id="clip17"><rect x="1146" y="115" width="1650" height="990"/></clipPath><clipPath id="clip18"><rect x="1146" y="115" width="1650" height="990"/></clipPath><clipPath id="clip19"><rect x="1146" y="115" width="1650" height="990"/></clipPath><clipPath id="clip20"><rect x="1146" y="115" width="1650" height="990"/></clipPath><clipPath id="clip21"><rect x="1146" y="115" width="1650" height="990"/></clipPath><clipPath id="clip22"><rect x="1146" y="115" width="1650" height="990"/></clipPath><clipPath id="clip23"><rect x="1146" y="115" width="1650" height="990"/></clipPath><clipPath id="clip24"><rect x="1146" y="115" width="1650" height="990"/></clipPath><clipPath id="clip25"><rect x="1146" y="115" width="1650" height="990"/></clipPath><clipPath id="clip26"><rect x="1146" y="115" width="1650" height="990"/></clipPath><clipPath id="clip27"><rect x="1146" y="115" width="1650" height="990"/></clipPath><clipPath id="clip28"><rect x="1146" y="115" width="1650" height="990"/></clipPath><clipPath id="clip29"><rect x="1146" y="115" width="1650" height="990"/></clipPath><clipPath id="clip30"><rect x="1146" y="115" width="1650" height="990"/></clipPath><clipPath id="clip31"><rect x="1146" y="115" width="1650" height="990"/></clipPath></defs><g clip-path="url(#clip0)" transform="translate(-1145 -114)"><rect x="1146" y="115" width="1650" height="990" fill="#FFFFFF"/><g clip-path="url(#clip1)"><path d="M1971.41 285.152C2092.79 285.152 2191.2 383.556 2191.2 504.944 2191.2 626.332 2092.79 724.737 1971.41 724.737 1942.89 724.737 1914.65 719.189 1888.26 708.404L1909.05 657.539C1993.32 691.979 2089.56 651.579 2124 567.303 2158.44 483.027 2118.04 386.79 2033.76 352.35 2013.97 344.261 1992.79 340.1 1971.41 340.1Z" stroke="#FFFFFF" stroke-width="6.875" stroke-linejoin="round" stroke-miterlimit="10" fill="#4472C4" fill-rule="evenodd"/></g><g clip-path="url(#clip2)"><path d="M1888.26 708.404C1836.04 687.064 1794.03 646.463 1770.91 595.004L1821.04 572.489C1838.37 611.083 1869.88 641.534 1909.05 657.539Z" stroke="#FFFFFF" stroke-width="6.875" stroke-linejoin="round" stroke-miterlimit="10" fill="#ED7D31" fill-rule="evenodd"/></g><g clip-path="url(#clip3)"><path d="M1770.91 595.004C1758.07 566.427 1751.5 535.436 1751.61 504.109L1806.56 504.318C1806.47 527.813 1811.41 551.056 1821.03 572.489Z" stroke="#FFFFFF" stroke-width="6.875" stroke-linejoin="round" stroke-miterlimit="10" fill="#A5A5A5" fill-rule="evenodd"/></g><g clip-path="url(#clip4)"><path d="M1751.61 504.108C1751.71 479.53 1755.92 455.141 1764.09 431.957L1815.92 450.204C1809.79 467.592 1806.63 485.884 1806.56 504.317Z" stroke="#FFFFFF" stroke-width="6.875" stroke-linejoin="round" stroke-miterlimit="10" fill="#FFC000" fill-rule="evenodd"/></g><g clip-path="url(#clip5)"><path d="M1764.09 431.957C1770.76 413.003 1780 395.054 1791.55 378.61L1836.51 410.194C1827.85 422.526 1820.92 435.988 1815.92 450.204Z" stroke="#FFFFFF" stroke-width="6.875" stroke-linejoin="round" stroke-miterlimit="10" fill="#5B9BD5" fill-rule="evenodd"/></g><g clip-path="url(#clip6)"><path d="M1791.55 378.61C1800.53 365.829 1810.84 354.041 1822.32 343.446L1859.59 383.821C1850.98 391.767 1843.25 400.608 1836.51 410.194Z" stroke="#FFFFFF" stroke-width="6.875" stroke-linejoin="round" stroke-miterlimit="10" fill="#70AD47" fill-rule="evenodd"/></g><g clip-path="url(#clip7)"><path d="M1822.32 343.446C1832.97 333.61 1844.58 324.852 1856.96 317.301L1885.57 364.212C1876.28 369.875 1867.58 376.444 1859.59 383.821Z" stroke="#FFFFFF" stroke-width="6.875" stroke-linejoin="round" stroke-miterlimit="10" fill="#264478" fill-rule="evenodd"/></g><g clip-path="url(#clip8)"><path d="M1856.96 317.301C1868.38 310.331 1880.42 304.42 1892.93 299.641L1912.55 350.967C1903.17 354.551 1894.14 358.984 1885.57 364.212Z" stroke="#FFFFFF" stroke-width="6.875" stroke-linejoin="round" stroke-miterlimit="10" fill="#9E480E" fill-rule="evenodd"/></g><g clip-path="url(#clip9)"><path d="M1892.93 299.641C1905.43 294.862 1918.34 291.234 1931.5 288.805L1941.48 342.839C1931.61 344.662 1921.92 347.382 1912.55 350.966Z" stroke="#FFFFFF" stroke-width="6.875" stroke-linejoin="round" stroke-miterlimit="10" fill="#636363" fill-rule="evenodd"/></g><g clip-path="url(#clip10)"><path d="M1931.5 288.805C1944.66 286.375 1958.02 285.152 1971.41 285.152L1971.41 340.1C1961.37 340.1 1951.35 341.017 1941.48 342.839Z" stroke="#FFFFFF" stroke-width="6.875" stroke-linejoin="round" stroke-miterlimit="10" fill="#997300" fill-rule="evenodd"/></g><g clip-path="url(#clip11)"><text fill="#595959" font-family="Calibri,Calibri_MSFontService,sans-serif" font-weight="400" font-size="64" transform="matrix(1 0 0 1 1506.01 211)">Quantidade de Casos por Município</text></g><g clip-path="url(#clip12)"><rect x="1308.5" y="802.5" width="22" height="22.9997" stroke="#FFFFFF" stroke-width="6.875" stroke-linejoin="round" stroke-miterlimit="10" fill="#4472C4"/></g><g clip-path="url(#clip13)"><text fill="#595959" font-family="Calibri,Calibri_MSFontService,sans-serif" font-weight="400" font-size="41" transform="matrix(1 0 0 1 1340.55 825)">São Paulo</text></g><g clip-path="url(#clip14)"><rect x="1760.5" y="802.5" width="22" height="22.9997" stroke="#FFFFFF" stroke-width="6.875" stroke-linejoin="round" stroke-miterlimit="10" fill="#ED7D31"/></g><g clip-path="url(#clip15)"><text fill="#595959" font-family="Calibri,Calibri_MSFontService,sans-serif" font-weight="400" font-size="41" transform="matrix(1 0 0 1 1792.48 825)">Campinas</text></g><g clip-path="url(#clip16)"><rect x="2212.5" y="802.5" width="22" height="22.9997" stroke="#FFFFFF" stroke-width="6.875" stroke-linejoin="round" stroke-miterlimit="10" fill="#A5A5A5"/></g><g clip-path="url(#clip17)"><text fill="#595959" font-family="Calibri,Calibri_MSFontService,sans-serif" font-weight="400" font-size="41" transform="matrix(1 0 0 1 2244.4 825)">Guarulhos</text></g><g clip-path="url(#clip18)"><rect x="1308.5" y="879.5" width="22" height="22.9997" stroke="#FFFFFF" stroke-width="6.875" stroke-linejoin="round" stroke-miterlimit="10" fill="#FFC000"/></g><g clip-path="url(#clip19)"><text fill="#595959" font-family="Calibri,Calibri_MSFontService,sans-serif" font-weight="400" font-size="41" transform="matrix(1 0 0 1 1340.55 903)">Osasco</text></g><g clip-path="url(#clip20)"><rect x="1760.5" y="879.5" width="22" height="22.9997" stroke="#FFFFFF" stroke-width="6.875" stroke-linejoin="round" stroke-miterlimit="10" fill="#5B9BD5"/></g><g clip-path="url(#clip21)"><text fill="#595959" font-family="Calibri,Calibri_MSFontService,sans-serif" font-weight="400" font-size="41" transform="matrix(1 0 0 1 1792.48 903)">Sorocaba</text></g><g clip-path="url(#clip22)"><rect x="2212.5" y="879.5" width="22" height="22.9997" stroke="#FFFFFF" stroke-width="6.875" stroke-linejoin="round" stroke-miterlimit="10" fill="#70AD47"/></g><g clip-path="url(#clip23)"><text fill="#595959" font-family="Calibri,Calibri_MSFontService,sans-serif" font-weight="400" font-size="41" transform="matrix(1 0 0 1 2244.4 903)">Ribeirão Preto</text></g><g clip-path="url(#clip24)"><rect x="1308.5" y="957.5" width="22" height="22" stroke="#FFFFFF" stroke-width="6.875" stroke-linejoin="round" stroke-miterlimit="10" fill="#264478"/></g><g clip-path="url(#clip25)"><text fill="#595959" font-family="Calibri,Calibri_MSFontService,sans-serif" font-weight="400" font-size="41" transform="matrix(1 0 0 1 1340.55 980)">Bauru</text></g><g clip-path="url(#clip26)"><rect x="1760.5" y="957.5" width="22" height="22" stroke="#FFFFFF" stroke-width="6.875" stroke-linejoin="round" stroke-miterlimit="10" fill="#9E480E"/></g><g clip-path="url(#clip27)"><text fill="#595959" font-family="Calibri,Calibri_MSFontService,sans-serif" font-weight="400" font-size="41" transform="matrix(1 0 0 1 1792.48 980)">Santo André</text></g><g clip-path="url(#clip28)"><rect x="2212.5" y="957.5" width="22" height="22" stroke="#FFFFFF" stroke-width="6.875" stroke-linejoin="round" stroke-miterlimit="10" fill="#636363"/></g><g clip-path="url(#clip29)"><text fill="#595959" font-family="Calibri,Calibri_MSFontService,sans-serif" font-weight="400" font-size="41" transform="matrix(1 0 0 1 2244.4 980)">São Bernardo do Campo</text></g><g clip-path="url(#clip30)"><rect x="1308.5" y="1034.5" width="22" height="23" stroke="#FFFFFF" stroke-width="6.875" stroke-linejoin="round" stroke-miterlimit="10" fill="#997300"/></g><g clip-path="url(#clip31)"><text fill="#595959" font-family="Calibri,Calibri_MSFontService,sans-serif" font-weight="400" font-size="41" transform="matrix(1 0 0 1 1340.55 1057)">São José dos Campos</text></g><rect x="1146.5" y="115.5" width="1650" height="990" stroke="#D9D9D9" stroke-width="3.4375" stroke-linejoin="round" stroke-miterlimit="10" fill="none"/></g></svg>