<svg width="1653" height="993" xmlns="http://www.w3.org/2000/svg" xmlns:xlink="http://www.w3.org/1999/xlink" overflow="hidden"><defs><clipPath id="clip0"><rect x="949" y="279" width="1653" height="993"/></clipPath><clipPath id="clip1"><rect x="950" y="280" width="1650" height="990"/></clipPath><clipPath id="clip2"><rect x="950" y="280" width="1650" height="990"/></clipPath><clipPath id="clip3"><rect x="950" y="280" width="1650" height="990"/></clipPath><clipPath id="clip4"><rect x="950" y="280" width="1650" height="990"/></clipPath><clipPath id="clip5"><rect x="950" y="280" width="1650" height="990"/></clipPath><clipPath id="clip6"><rect x="950" y="280" width="1650" height="990"/></clipPath><clipPath id="clip7"><rect x="950" y="280" width="1650" height="990"/></clipPath><clipPath id="clip8"><rect x="950" y="280" width="1650" height="990"/></clipPath><clipPath id="clip9"><rect x="950" y="280" width="1650" height="990"/></clipPath><clipPath id="clip10"><rect x="950" y="280" width="1650" height="990"/></clipPath><clipPath id="clip11"><rect x="950" y="280" width="1650" height="990"/></clipPath><clipPath id="clip12"><rect x="950" y="280" width="1650" height="990"/></clipPath><clipPath id="clip13"><rect x="950" y="280" width="1650" height="990"/></clipPath><clipPath id="clip14"><rect x="950" y="280" width="1650" height="990"/></clipPath><clipPath id="clip15"><rect x="950" y="280" width="1650" height="990"/></clipPath><clipPath id="clip16"><rect x="950" y="280" width="1650" height="990"/></clipPath></defs><g clip-path="url(#clip0)" transform="translate(-949 -279)"><rect x="950" y="280" width="1650" height="990" fill="#FFFFFF"/><g clip-path="url(#clip1)"><path d="M1775.47 450.152C1939.57 450.152 2072.61 583.185 2072.61 747.289 2072.61 911.393 1939.57 1044.43 1775.47 1044.43 1739.77 1044.43 1704.37 1037.99 1670.95 1025.44L1775.47 747.289Z" stroke="#FFFFFF" stroke-width="6.875" stroke-linejoin="round" stroke-miterlimit="10" fill="#4472C4" fill-rule="evenodd"/></g><g clip-path="url(#clip2)"><path d="M1670.95 1025.44C1576.36 989.891 1506.31 908.707 1485.01 809.926L1775.47 747.289Z" stroke="#FFFFFF" stroke-width="6.875" stroke-linejoin="round" stroke-miterlimit="10" fill="#ED7D31" fill-rule="evenodd"/></g><g clip-path="url(#clip3)"><path d="M1485.01 809.926C1465.98 721.668 1488.1 629.544 1545.15 559.559L1775.47 747.289Z" stroke="#FFFFFF" stroke-width="6.875" stroke-linejoin="round" stroke-miterlimit="10" fill="#A5A5A5" fill-rule="evenodd"/></g><g clip-path="url(#clip4)"><path d="M1545.15 559.559C1588.21 506.723 1648.14 470.3 1714.87 456.398L1775.47 747.289Z" stroke="#FFFFFF" stroke-width="6.875" stroke-linejoin="round" stroke-miterlimit="10" fill="#FFC000" fill-rule="evenodd"/></g><g clip-path="url(#clip5)"><path d="M1714.87 456.398C1734.8 452.245 1755.11 450.152 1775.47 450.152L1775.47 747.289Z" stroke="#FFFFFF" stroke-width="6.875" stroke-linejoin="round" stroke-miterlimit="10" fill="#5B9BD5" fill-rule="evenodd"/></g><g clip-path="url(#clip6)"><text fill="#595959" font-family="Calibri,Calibri_MSFontService,sans-serif" font-weight="400" font-size="64" transform="matrix(1 0 0 1 1252.91 376)">Profissões mais comuns entre as vítimas</text></g><g clip-path="url(#clip7)"><rect x="1136.5" y="1122.5" width="23" height="22" stroke="#FFFFFF" stroke-width="6.875" stroke-linejoin="round" stroke-miterlimit="10" fill="#4472C4"/></g><g clip-path="url(#clip8)"><text fill="#595959" font-family="Calibri,Calibri_MSFontService,sans-serif" font-weight="400" font-size="41" transform="matrix(1 0 0 1 1168.95 1145)">NÃO IDENTIFICADO</text></g><g clip-path="url(#clip9)"><rect x="1572.5" y="1122.5" width="22.9996" height="22" stroke="#FFFFFF" stroke-width="6.875" stroke-linejoin="round" stroke-miterlimit="10" fill="#ED7D31"/></g><g clip-path="url(#clip10)"><text fill="#595959" font-family="Calibri,Calibri_MSFontService,sans-serif" font-weight="400" font-size="41" transform="matrix(1 0 0 1 1604.65 1145)">PRENDAS DOMESTICAS</text></g><g clip-path="url(#clip11)"><rect x="2008.5" y="1122.5" width="22" height="22" stroke="#FFFFFF" stroke-width="6.875" stroke-linejoin="round" stroke-miterlimit="10" fill="#A5A5A5"/></g><g clip-path="url(#clip12)"><text fill="#595959" font-family="Calibri,Calibri_MSFontService,sans-serif" font-weight="400" font-size="41" transform="matrix(1 0 0 1 2040.35 1145)">NAO INFORMADA</text></g><g clip-path="url(#clip13)"><rect x="1136.5" y="1199.5" width="23" height="23" stroke="#FFFFFF" stroke-width="6.875" stroke-linejoin="round" stroke-miterlimit="10" fill="#FFC000"/></g><g clip-path="url(#clip14)"><text fill="#595959" font-family="Calibri,Calibri_MSFontService,sans-serif" font-weight="400" font-size="41" transform="matrix(1 0 0 1 1168.95 1222)">ESTUDANTE</text></g><g clip-path="url(#clip15)"><rect x="1572.5" y="1199.5" width="22.9996" height="23" stroke="#FFFFFF" stroke-width="6.875" stroke-linejoin="round" stroke-miterlimit="10" fill="#5B9BD5"/></g><g clip-path="url(#clip16)"><text fill="#595959" font-family="Calibri,Calibri_MSFontService,sans-serif" font-weight="400" font-size="41" transform="matrix(1 0 0 1 1604.65 1222)">DESEMPREGADO(A)</text></g><rect x="950.5" y="280.5" width="1650" height="990" stroke="#D9D9D9" stroke-width="3.4375" stroke-linejoin="round" stroke-miterlimit="10" fill="none"/></g></svg>